<?xml version="1.0" encoding="UTF-8" standalone="no"?>
<!-- Created with Inkscape (http://www.inkscape.org/) -->

<svg
   width="125mm"
   height="88mm"
   viewBox="0 0 125 88"
   version="1.1"
   id="svg5"
   inkscape:version="1.2.2 (732a01da63, 2022-12-09)"
   sodipodi:docname="schneeprofilkarte-text-flattened-footer-soldermask.svg"
   xmlns:inkscape="http://www.inkscape.org/namespaces/inkscape"
   xmlns:sodipodi="http://sodipodi.sourceforge.net/DTD/sodipodi-0.dtd"
   xmlns="http://www.w3.org/2000/svg"
   xmlns:svg="http://www.w3.org/2000/svg">
  <sodipodi:namedview
     id="namedview7"
     pagecolor="#505050"
     bordercolor="#eeeeee"
     borderopacity="1"
     inkscape:showpageshadow="0"
     inkscape:pageopacity="0"
     inkscape:pagecheckerboard="0"
     inkscape:deskcolor="#505050"
     inkscape:document-units="mm"
     showgrid="true"
     inkscape:zoom="2"
     inkscape:cx="278.75"
     inkscape:cy="83.5"
     inkscape:current-layer="layer1">
    <inkscape:grid
       type="xygrid"
       id="grid132"
       units="mm"
       spacingx="1"
       spacingy="1"
       originx="0"
       originy="0"
       visible="true" />
  </sodipodi:namedview>
  <defs
     id="defs2">
    <rect
       x="170.07874"
       y="453.5433"
       width="321.25983"
       height="217.32283"
       id="rect9783" />
    <rect
       x="-56.692913"
       y="0"
       width="302.36221"
       height="359.05511"
       id="rect45032" />
  </defs>
  <g
     inkscape:label="Layer 1"
     inkscape:groupmode="layer"
     id="layer1">
    <path
       id="path1833"
       style="color:#000000;font-size:2.5px;font-family:'Open Sans';-inkscape-font-specification:'Open Sans';fill:#000000;stroke:none;stroke-width:0.7;stroke-linecap:butt;stroke-linejoin:miter;-inkscape-stroke:none"
       d="m -78.490299,83.736491 c 0.06755,0 0.126822,0.01025 0.189652,0.02325 0.05998,0.01152 0.115614,0.02462 0.179834,0.05271 0.01501,0.0087 0.02934,0.01859 0.04289,0.02946 0.02181,-0.0034 0.03977,-0.02739 0.06046,-0.02739 0.07804,0 0.181916,0.02315 0.271818,0.0863 0.06474,-0.09359 0.170939,-0.149874 0.284737,-0.150895 h 0.205155 c 0.07834,0.0033 0.153318,0.03275 0.212907,0.08372 0.05959,-0.05096 0.134565,-0.08044 0.212907,-0.08372 h 0.208773 c 0.222967,5.6e-5 0.389051,0.20578 0.342098,0.423747 l -0.03514,0.162263 c 0.01806,-0.0094 0.03691,-0.01716 0.05633,-0.02325 h 0.24598 c 0.09414,0.0028 0.183185,0.0434 0.247014,0.112655 0.138129,-0.08594 0.299151,-0.137976 0.461987,-0.137976 0.111392,0 0.220888,0.04833 0.322461,0.101285 0.03177,-0.03227 0.0695,-0.05807 0.111104,-0.07596 h 0.154513 c 0.07314,0.0032 0.143444,0.0292 0.201021,0.07441 0.05772,-0.04532 0.128219,-0.07135 0.201538,-0.07441 h 0.169499 c 0.03867,0.0041 0.07639,0.01454 0.111621,0.03101 6.92e-4,6.86e-4 0.0014,0.0014 0.0021,0.0021 0.08918,-0.03878 0.184406,-0.05839 0.276986,-0.05839 v -5.17e-4 c 0.06774,0 0.134363,0.0077 0.202054,0.02274 l 0.0677,-0.124024 c 0.06168,-0.112635 0.18009,-0.18245 0.308508,-0.181901 h 0.119372 c 0.178806,0.0079 0.322814,0.149502 0.33383,0.328145 0.06399,0.01471 0.122541,0.04713 0.168982,0.09354 0.138807,-0.08621 0.299867,-0.137976 0.463538,-0.137976 0.174998,0 0.361047,0.03914 0.510046,0.167948 6e-4,4.45e-4 0.0016,-4.47e-4 0.0021,0 0.140254,0.121502 0.214457,0.31839 0.214457,0.489893 0,0.212381 -0.148639,0.39574 -0.308508,0.537435 0.08775,0.06164 0.142408,0.160095 0.148311,0.267167 v 0.177767 c -3.58e-4,0.136094 -0.07957,0.259643 -0.203088,0.316776 -0.09051,0.04237 -0.175937,0.07611 -0.265617,0.09767 -0.09077,0.02269 -0.184113,0.03307 -0.279053,0.03307 -0.174554,0 -0.35444,-0.05055 -0.499711,-0.152963 -0.03337,0.03635 -0.07405,0.06523 -0.119372,0.08475 -0.0564,0.02323 -0.111419,0.03727 -0.167949,0.04857 -0.05389,0.01073 -0.103088,0.01964 -0.166398,0.01964 -0.156791,0 -0.329025,-0.04084 -0.464571,-0.160197 -0.0014,-0.0014 -0.0028,-0.0027 -0.0041,-0.0041 -0.138979,-0.360458 -0.290014,-0.38769 -0.359108,-0.138489 -0.0342,0.161462 -0.176537,0.277098 -0.341581,0.277502 h -0.205156 c -0.07434,-6.01e-4 -0.146557,-0.02485 -0.206189,-0.06925 -0.05692,0.04247 -0.125405,0.06662 -0.19637,0.06925 h -0.162264 c -0.08208,-0.0058 -0.159473,-0.04043 -0.218592,-0.09767 -0.08002,0.02831 -0.130631,0.12299 -0.218591,0.12299 -0.134241,0 -0.277905,-0.04557 -0.396358,-0.124541 -0.06153,0.06007 -0.143021,0.09539 -0.228927,0.09922 h -0.226342 c -0.138368,3.23e-4 -0.263941,-0.08089 -0.320394,-0.207222 -0.04504,0.106832 -0.140056,0.184431 -0.253732,0.207222 h -0.207222 c -0.08053,-9.14e-4 -0.158279,-0.02957 -0.220142,-0.08113 -0.05897,0.04928 -0.132511,0.0778 -0.209289,0.08113 h -0.205156 c -0.08071,-7.96e-4 -0.158659,-0.02946 -0.220658,-0.08113 -0.05897,0.04929 -0.132512,0.0778 -0.20929,0.08113 h -0.204638 c -0.09139,-0.0052 -0.177089,-0.04603 -0.238745,-0.113688 -0.03935,0.186783 -0.09755,0.355532 -0.22841,0.496094 -0.13053,0.14019 -0.332967,0.219108 -0.517281,0.219108 -0.09167,0 -0.185606,-0.0154 -0.275436,-0.04909 -0.13665,-0.05137 -0.227067,-0.182158 -0.226859,-0.328145 v -0.171566 c 0.0049,-0.01751 0.01108,-0.03462 0.0186,-0.05116 -0.05648,0.01077 -0.113718,0.01757 -0.171049,0.01757 -0.224913,0 -0.459089,-0.07805 -0.619083,-0.243912 -0.137889,-0.245213 -0.253803,-0.224677 -0.321943,-0.05271 -0.03424,0.161651 -0.17686,0.277342 -0.342098,0.277502 h -0.205155 c -0.121871,-6.69e-4 -0.23462,-0.06468 -0.297656,-0.168982 -0.154756,0.122661 -0.354216,0.194304 -0.551905,0.194304 -0.03542,0 -0.06747,-0.02622 -0.103352,-0.03152 -0.02033,0.09785 -0.04048,0.186435 -0.07028,0.328145 -0.03335,0.162284 -0.175907,0.278961 -0.341582,0.27957 h -0.203605 c -0.222755,-3.85e-4 -0.38849,-0.205987 -0.341581,-0.423747 l 0.03927,-0.185002 c -0.0895,0.02218 -0.181893,0.03243 -0.275435,0.03256 h -0.0021 c -9e-4,0 -0.0012,-0.0021 -0.0021,-0.0021 -0.205368,-9.77e-4 -0.420026,-0.06969 -0.574125,-0.212906 -0.03101,0.03524 -0.0688,0.06389 -0.111105,0.08423 -0.09051,0.04237 -0.175927,0.07611 -0.265617,0.09767 -0.09077,0.02269 -0.184629,0.03307 -0.279569,0.03307 -0.218852,0 -0.447263,-0.07802 -0.603581,-0.240296 -0.0067,-0.007 -0.01218,-0.01498 -0.0186,-0.02222 -0.04728,0.138964 -0.176235,0.233671 -0.322978,0.237195 h -0.207223 c -0.143167,-0.01386 -0.263283,-0.113887 -0.302824,-0.252181 -0.04055,0.140768 -0.164479,0.241392 -0.310575,0.252181 h -0.204639 c -0.07843,-7.99e-4 -0.154315,-0.02791 -0.21549,-0.077 -0.05824,0.04686 -0.129954,0.07384 -0.204639,0.077 h -0.205155 c -0.142942,-0.01497 -0.262209,-0.115791 -0.300757,-0.254248 -0.04009,0.142254 -0.165204,0.244001 -0.312643,0.254248 h -0.205155 c -0.06215,-7.68e-4 -0.12297,-0.01807 -0.176217,-0.05013 -0.12797,0.04978 -0.265312,0.07545 -0.403593,0.07545 -0.222223,0 -0.453603,-0.07275 -0.615466,-0.234611 -0.0064,-0.0064 -0.01147,-0.01356 -0.01757,-0.02015 -0.02365,0.02629 -0.04846,0.05106 -0.07596,0.07286 -0.170872,0.135141 -0.381758,0.181902 -0.59583,0.181902 -0.185165,0 -0.368389,-0.04037 -0.531233,-0.12299 -0.117555,-0.05986 -0.191474,-0.180725 -0.191203,-0.312643 v -0.0083 l -0.132808,0.238745 c -0.0616,0.110701 -0.178206,0.17948 -0.304891,0.179834 h -0.212907 c -6.9e-4,-1.7e-4 -0.0014,-3.43e-4 -0.0021,-5.17e-4 -5.17e-4,1.74e-4 -10e-4,3.46e-4 -0.0016,5.17e-4 h -0.207222 c -0.176817,2.06e-4 -0.326023,-0.131485 -0.347783,-0.306958 l -0.03101,-0.259416 h -0.0863 l -0.198954,0.380856 c -0.06107,0.11469 -0.180642,0.186116 -0.310576,0.185518 h -0.230477 c -0.0043,-4.37e-4 -0.0086,-9.53e-4 -0.01292,-0.0015 -0.0022,5.39e-4 -0.0045,0.0011 -0.0067,0.0015 h -0.226342 c -0.150038,4.75e-4 -0.283692,-0.09472 -0.33228,-0.236678 l -0.03514,-0.09922 -0.01137,0.0584 c -0.03424,0.161651 -0.17686,0.277342 -0.342098,0.277502 h -0.206705 c -0.0519,-2.87e-4 -0.103093,-0.01211 -0.149862,-0.03462 -0.0473,0.01762 -0.09347,0.03068 -0.141593,0.04031 -0.05389,0.01073 -0.104639,0.01964 -0.167949,0.01964 -0.15679,0 -0.329026,-0.04084 -0.464571,-0.160197 -0.0014,-0.0014 -0.0028,-0.0027 -0.0041,-0.0041 -0.243498,-0.264638 -0.266458,-0.342475 -0.359148,-0.138493 -0.03424,0.161651 -0.17686,0.277342 -0.342098,0.277502 h -0.205156 c -0.08005,-8.6e-4 -0.15738,-0.02913 -0.219108,-0.0801 -0.06891,0.02978 -0.136521,0.0556 -0.206189,0.07235 -0.09077,0.02269 -0.184629,0.03307 -0.279569,0.03307 -0.159278,0 -0.323045,-0.04209 -0.460954,-0.127125 -0.06153,0.06137 -0.143678,0.09765 -0.230477,0.101803 h -0.22841 c -0.137619,-4.92e-4 -0.26218,-0.08158 -0.318327,-0.207222 -0.04504,0.106832 -0.140055,0.184431 -0.253731,0.207222 h -0.207222 c -0.081,-4.12e-4 -0.159348,-0.0289 -0.221692,-0.08061 -0.05875,0.04889 -0.131898,0.0772 -0.208256,0.08061 h -0.204639 c -0.121355,-1.18e-4 -0.23399,-0.06308 -0.297656,-0.166398 -0.0025,0.0019 -0.0047,0.0043 -0.0072,0.0062 -0.156607,0.115868 -0.352103,0.179317 -0.546737,0.179317 -0.224919,0 -0.461149,-0.07804 -0.621149,-0.243912 -0.13866,-0.143769 -0.21125,-0.33891 -0.22738,-0.535368 h -0.19482 l -0.10129,0.482658 c -0.0342,0.161462 -0.17654,0.277098 -0.34158,0.277502 h -0.21135 c -0.22197,-5.87e-4 -0.38735,-0.204989 -0.34159,-0.422196 l 0.061,-0.289905 -0.29559,0.532267 c -0.0619,0.111186 -0.1792,0.180041 -0.30644,0.179834 h -0.21084 c -0.0416,-9.78e-4 -0.0828,-0.0094 -0.12144,-0.02481 -0.0341,0.01385 -0.0702,0.02222 -0.10697,0.02481 h -0.20722 c -0.13401,-0.01161 -0.24951,-0.09899 -0.29714,-0.224792 -0.0447,0.12047 -0.15182,0.206761 -0.27905,0.224792 h -0.20516 c -0.13324,-0.01237 -0.24777,-0.09962 -0.29507,-0.224792 -0.0444,0.119887 -0.15054,0.20606 -0.27699,0.224792 h -0.20515 c -0.12158,-7.38e-4 -0.23407,-0.06452 -0.29714,-0.168465 -0.003,0.0025 -0.006,0.0058 -0.009,0.0083 -0.15661,0.115858 -0.35262,0.179317 -0.54726,0.179317 -0.19533,0 -0.39724,-0.05927 -0.5519,-0.183451 -0.0228,0.02889 -0.05,0.054 -0.0806,0.07441 -0.1524,0.07742 -0.32404,0.115239 -0.49609,0.115239 -0.006,0 -0.0116,-0.0056 -0.0176,-0.0057 v 0.0036 c -0.002,-0.0026 -0.004,-0.0051 -0.006,-0.0078 -0.21418,-0.0053 -0.43607,-0.06918 -0.5917,-0.224792 -0.004,-0.0036 -0.006,-0.0077 -0.01,-0.01137 -0.0145,0.02509 -0.0301,0.04959 -0.0486,0.07183 -6.8e-4,0.0014 -0.001,0.0028 -0.002,0.0041 -0.096,0.112878 -0.26246,0.179834 -0.39842,0.179834 -0.10283,0 -0.23878,-0.03986 -0.33228,-0.129191 -0.0256,-0.02458 -0.0462,-0.05172 -0.0641,-0.0801 -0.15523,0.125969 -0.35623,0.199471 -0.55656,0.199472 -0.11286,0 -0.22437,-0.04843 -0.32814,-0.101803 -0.0325,0.03273 -0.0711,0.05873 -0.11369,0.07648 h -0.15193 c -0.0812,-8.48e-4 -0.15956,-0.02989 -0.22169,-0.08217 -0.0591,0.04987 -0.13306,0.07876 -0.21032,0.08217 h -0.17002 c -0.0463,-0.01005 -0.0901,-0.02938 -0.12867,-0.05684 -0.0995,0.04233 -0.20375,0.08217 -0.31264,0.08217 -0.16706,0 -0.35059,-0.05353 -0.48421,-0.179834 -6.9e-4,-6.86e-4 -0.001,-0.0014 -0.002,-0.0021 -0.0114,-0.01094 -0.0212,-0.02286 -0.0315,-0.03462 -0.0581,0.114298 -0.17412,0.187656 -0.30231,0.191203 h -0.20309 c -0.14317,-0.01386 -0.26328,-0.113888 -0.30282,-0.252181 -0.0406,0.14077 -0.16448,0.241394 -0.31058,0.252181 h -0.20515 c -0.0469,-7e-5 -0.0933,-0.0096 -0.13643,-0.02791 -0.041,0.01385 -0.0816,0.02529 -0.12299,0.03359 -0.0539,0.01083 -0.10258,0.01964 -0.16588,0.01964 -0.15679,0 -0.32954,-0.04084 -0.46509,-0.160197 -0.001,-0.0014 -0.003,-0.0027 -0.004,-0.0041 -0.0165,-0.01504 -0.0317,-0.03083 -0.046,-0.04754 -0.0589,0.111704 -0.17348,0.182996 -0.29973,0.186552 h -0.185 c -0.0505,0.165885 -0.15342,0.319427 -0.293,0.415995 -0.2003,0.138557 -0.44113,0.185519 -0.70125,0.185519 -0.20173,0 -0.39661,-0.03783 -0.56483,-0.150379 -0.001,-3.63e-4 -0.001,3.66e-4 -0.002,0 -0.17054,-0.114428 -0.28939,-0.339179 -0.28939,-0.543119 0,-0.01992 0.004,-0.03987 0.006,-0.05994 -0.063,0.09194 -0.16609,0.148364 -0.27751,0.151929 h -0.2129 c -0.14752,-10e-4 -0.27855,-0.09446 -0.32763,-0.233577 l -0.03,0.05374 c -0.0619,0.111189 -0.17921,0.180045 -0.30645,0.179834 h -0.21135 c -0.0386,-7.67e-4 -0.0769,-0.0079 -0.11317,-0.02119 -0.0753,0.03565 -0.15711,0.05633 -0.23048,0.05633 -0.1034,0 -0.23836,-0.03934 -0.33176,-0.129191 -0.003,-0.0033 -0.005,-0.0074 -0.009,-0.01085 -0.15626,0.09542 -0.33849,0.130225 -0.52245,0.130225 -0.18516,0 -0.36838,-0.04037 -0.53123,-0.12299 -0.0324,-0.01665 -0.0621,-0.03827 -0.0879,-0.06408 -0.15326,0.117747 -0.34769,0.187069 -0.54105,0.187069 -0.0356,0 -0.0679,-0.02622 -0.10387,-0.03152 -0.0225,0.107582 -0.027,0.131271 -0.0682,0.328145 -0.0333,0.162283 -0.17591,0.27896 -0.34158,0.27957 h -0.20308 c -0.22297,-5.5e-5 -0.38905,-0.20578 -0.3421,-0.423747 l 0.0326,-0.152962 c -0.13262,-0.0013 -0.27534,-0.03188 -0.39739,-0.114722 -0.0214,0.01846 -0.045,0.03425 -0.0703,0.04703 -0.0564,0.02323 -0.11145,0.03727 -0.16795,0.04857 -0.0539,0.01083 -0.1031,0.01964 -0.16639,0.01964 -0.15679,0 -0.32904,-0.04085 -0.46458,-0.160197 -0.001,-0.0014 -0.003,-0.0027 -0.004,-0.0041 -0.0141,-0.01279 -0.0269,-0.02628 -0.0393,-0.04031 -0.0603,0.107969 -0.17302,0.176132 -0.29663,0.179317 h -0.20515 c -0.14317,-0.01386 -0.26329,-0.113885 -0.30283,-0.252181 -0.0405,0.140766 -0.16448,0.24139 -0.31057,0.252181 h -0.20516 c -0.22197,-5.93e-4 -0.38734,-0.204993 -0.34158,-0.422196 l 0.40204,-1.900143 c 0.0342,-0.161652 0.17686,-0.277343 0.3421,-0.277502 h 0.20516 c 0.22381,9.8e-5 0.39003,0.207315 0.34158,0.425814 -0.01,0.04378 -0.0184,0.08509 -0.0274,0.127124 0.13827,0.0055 0.28783,0.03995 0.40669,0.128157 0.0105,-0.0089 0.0216,-0.0172 0.0331,-0.02481 l 0.11317,-0.04857 0.0935,-0.172083 c 0.0614,-0.112147 0.1791,-0.181883 0.30696,-0.181901 h 0.12092 c 0.16242,0.01067 0.29605,0.131879 0.32246,0.292489 l 0.0605,-0.110588 c 0.0613,-0.111984 0.17876,-0.181693 0.30644,-0.181901 h 0.12144 c 0.17881,0.0079 0.32281,0.149502 0.33383,0.328145 0.0164,0.0065 0.0323,0.01432 0.0475,0.02326 0.0495,-0.0269 0.10486,-0.04144 0.16123,-0.04237 h 0.17001 c 0.084,0.0038 0.16378,0.03777 0.2248,0.0956 0.0762,-0.02594 0.123,-0.117306 0.2067,-0.117306 0.18227,0 0.38158,0.08336 0.51005,0.222209 0.0139,-0.014 0.0279,-0.02781 0.0429,-0.04031 0.15378,-0.128447 0.35525,-0.185518 0.5488,-0.185518 0.18541,0 0.36929,0.04133 0.53899,0.118339 0.0995,-0.08231 0.2339,-0.128158 0.34571,-0.128158 0.10201,0 0.24455,0.03791 0.34365,0.144177 0.0584,0.06258 0.0897,0.13334 0.10697,0.201022 l 0.32091,-0.577743 c 0.0619,-0.111189 0.17921,-0.180045 0.30645,-0.179834 h 0.21135 c 0.148,0.0049 0.27692,0.102333 0.32195,0.243396 l 0.0351,-0.06356 c 0.062,-0.111346 0.17953,-0.180227 0.30695,-0.179834 h 0.21291 c 0.22291,0.0089 0.38077,0.22117 0.32505,0.437183 0.0533,-0.0099 0.10756,-0.01499 0.16123,-0.01499 0.0631,0 0.12538,0.01437 0.18758,0.02532 h 0.002 0.42633 c 0.002,-0.109572 0.0439,-0.241183 0.12868,-0.335897 0.0874,-0.09818 0.23733,-0.162264 0.36122,-0.162264 0.0954,0 0.23226,0.0311 0.33176,0.132809 0.0323,0.03305 0.0545,0.06977 0.0729,0.10697 0.0547,-0.03314 0.11744,-0.05065 0.18139,-0.05064 h 0.11937 c 0.11876,0.0063 0.22619,0.07248 0.28525,0.1757 l 0.0326,-0.151929 c 0.0342,-0.161652 0.17686,-0.277343 0.3421,-0.277502 h 0.20515 c 0.22381,9.8e-5 0.39003,0.207315 0.34158,0.425814 -0.01,0.04378 -0.0184,0.08509 -0.0274,0.127124 0.16268,0.0064 0.34173,0.05212 0.46716,0.179317 0.007,0.0075 0.0137,0.01593 0.0207,0.02377 0.0577,-0.115419 0.17433,-0.189695 0.30334,-0.19327 h 0.20877 c 0.14615,0.0012 0.27616,0.09311 0.32608,0.230477 0.044,-0.124475 0.15432,-0.213597 0.28526,-0.230477 h 0.20153 c 0.0496,3.77e-4 0.0986,0.0113 0.14366,0.03204 l 0.0672,-0.317293 c 0.0342,-0.161462 0.17654,-0.277098 0.34158,-0.277502 h 0.20516 c 0.22282,-7.22e-4 0.38959,0.204164 0.34365,0.422196 -0.0125,0.05926 -0.0181,0.08544 -0.0289,0.136426 0.18487,0.01219 0.38536,0.08614 0.50385,0.234611 0.19637,0.344116 0.22972,1.129265 0.46663,0.390674 0.0808,-0.184702 0.20438,-0.34664 0.36536,-0.463021 0.16246,-0.117814 0.36365,-0.183451 0.5643,-0.183451 0.15492,0 0.30816,0.02931 0.4532,0.08578 0.0452,0.01989 0.0857,0.04912 0.11886,0.08578 0.15194,-0.104142 0.33558,-0.163814 0.51987,-0.163814 0.22399,0 0.45724,0.07979 0.61701,0.243913 0.009,0.0093 0.0168,0.01969 0.0253,0.02945 0.0418,-0.149517 0.17705,-0.253651 0.33228,-0.255798 h 0.17002 c 0.0576,0.0018 0.11387,0.01776 0.16381,0.04651 0.0829,-0.03039 0.16308,-0.07183 0.25218,-0.07183 l -5.1e-4,-5.17e-4 c 0.11567,0 0.23055,0.06955 0.34003,0.136942 0.003,-0.002 0.005,-0.0058 0.008,-0.0078 0.12436,-0.07821 0.27181,-0.129191 0.42426,-0.129191 0.16524,0 0.35169,0.05428 0.48421,0.183968 0.0812,0.07894 0.13064,0.178284 0.15968,0.28112 l 0.39274,-0.706934 c 0.062,-0.111349 0.17953,-0.180231 0.30696,-0.179834 h 0.21291 c 0.0427,0.0034 0.0844,0.01462 0.12299,0.03307 0.0447,-0.02095 0.0933,-0.03223 0.14262,-0.03307 h 0.89814 c 0.22096,-5.11e-4 0.38711,0.201315 0.34417,0.418063 l -0.01,0.04961 c 0.0819,-0.02372 0.166568,-0.03772 0.251664,-0.03772 0.224007,0 0.457759,0.07978 0.617533,0.243913 0.0067,0.0069 0.01221,0.0146 0.0186,0.0217 l 0.114205,-0.533301 c 0.0342,-0.161462 0.176537,-0.277098 0.341581,-0.277502 h 0.205155 c 0.07906,0.0028 0.154835,0.03232 0.214974,0.08372 0.05959,-0.05096 0.134565,-0.08044 0.212907,-0.08372 h 0.206706 c 0.222967,5.6e-5 0.389051,0.20578 0.342098,0.423747 l -0.03514,0.164331 c 0.01865,-0.0102 0.0382,-0.01867 0.05839,-0.02532 h 0.24598 c 0.08348,0.0038 0.162853,0.03734 0.223759,0.09457 0.132417,-0.07581 0.283969,-0.119889 0.436666,-0.119889 0.174998,0 0.360532,0.03914 0.509529,0.167948 6e-4,4.45e-4 0.0016,-4.47e-4 0.0021,0 0.0042,0.0037 0.0078,0.0081 0.01189,0.01189 0.06393,-0.09497 0.170268,-0.152671 0.284737,-0.154513 h 0.170016 c 0.03867,0.0041 0.07639,0.01454 0.111621,0.03101 5.19e-4,6.87e-4 0.001,0.0014 0.0015,0.0021 0.08918,-0.03878 0.184923,-0.05839 0.277502,-0.05839 v -5.17e-4 c 0.06731,0 0.134888,0.0074 0.202572,0.02222 l 0.06873,-0.123507 c 0.06142,-0.112146 0.179096,-0.181882 0.306958,-0.181901 h 0.118856 c 0.140333,0.01064 0.260649,0.104284 0.305407,0.237712 l 0.02119,-0.0987 c 0.0342,-0.161462 0.176537,-0.277099 0.341581,-0.277503 h 0.390674 c 0.229346,0 0.451778,0.04467 0.630969,0.19172 0.117701,0.09659 0.193669,0.232404 0.232544,0.376721 l 0.21084,-0.38654 c 0.06133,-0.111984 0.178764,-0.181693 0.306441,-0.181901 h 0.212907 c 0.176817,-2.06e-4 0.326022,0.131485 0.347782,0.306958 l 0.09147,0.729155 0.476974,-0.856279 c 0.06151,-0.11054 0.177874,-0.179293 0.304374,-0.179834 h 0.212907 c 0.219132,0.0085 0.376565,0.214114 0.327629,0.427881 0.02503,-0.0019 0.05005,-0.0057 0.07493,-0.0057 0.189647,0 0.37796,0.04252 0.550871,0.12299 0.04476,0.02288 0.08406,0.05514 0.115239,0.09457 0.0138,-0.01113 0.02641,-0.02369 0.04082,-0.03411 0.162458,-0.117814 0.363661,-0.183451 0.564307,-0.183451 0.126379,0 0.251486,0.02051 0.37207,0.05839 l 0.0677,-0.318327 c 0.0342,-0.161462 0.176537,-0.277098 0.341581,-0.277502 h 0.205156 c 0.223807,9.8e-5 0.390033,0.207315 0.341581,0.425814 -0.0094,0.04278 -0.01829,0.08394 -0.02739,0.125057 0.163326,0.006 0.341115,0.05357 0.467155,0.181384 0.01113,0.01121 0.02094,0.02372 0.03101,0.03566 0.05525,-0.121665 0.174944,-0.201261 0.308509,-0.205156 h 0.170015 c 0.05901,0.0011 0.116781,0.01709 0.167948,0.04651 0.08834,-0.0328 0.175012,-0.07183 0.269751,-0.07183 0.167658,0 0.353684,0.05631 0.486276,0.183451 0.04006,0.038 0.073,0.08182 0.100769,0.128674 0.03948,-0.04343 0.08121,-0.08468 0.127641,-0.120923 0.153637,-0.119911 0.348725,-0.191077 0.544669,-0.191202 h 5.17e-4 c 0.174849,7.6e-5 0.360675,0.03927 0.509529,0.167948 6e-4,4.45e-4 0.0016,-4.47e-4 0.0021,0 0.03405,0.0295 0.06391,0.06328 0.08992,0.100252 0.02741,-0.0269 0.05537,-0.05326 0.08578,-0.077 0.153772,-0.120016 0.350619,-0.191202 0.546737,-0.191202 0.174996,0 0.358982,0.03915 0.507979,0.167948 6e-4,4.47e-4 0.0016,-4.49e-4 0.0021,0 0.0042,0.0037 0.0078,0.0081 0.01189,0.01189 0.06393,-0.09497 0.170268,-0.152671 0.284737,-0.154513 h 0.170016 c 0.08398,0.0038 0.163773,0.03777 0.224792,0.0956 0.07653,-0.0262 0.124603,-0.117306 0.208773,-0.117306 0.190369,0 0.397737,0.09065 0.525032,0.240812 0.05201,-0.129113 0.175573,-0.215142 0.31471,-0.219108 h 0.170015 c 0.03849,0.0041 0.07604,0.0146 0.111105,0.03101 6.92e-4,6.86e-4 0.0014,0.0014 0.0021,0.0021 0.08918,-0.03878 0.184922,-0.05839 0.277502,-0.05839 v -5.17e-4 c 0.07982,0 0.157869,0.0074 0.238229,0.02945 0.05447,0.01573 0.104301,0.04446 0.14521,0.08372 0.130272,-0.06751 0.276751,-0.104903 0.42323,-0.104903 0.190792,0 0.387926,0.05863 0.541053,0.17725 0.03119,-0.02985 0.06763,-0.05368 0.107487,-0.07028 l 0.06253,-0.01912 c -0.07702,0.154911 0.199744,-0.394472 0.230477,-0.439763 0.14672,-0.148511 0.35394,-0.206706 0.54467,-0.206706 z m -34.782891,0.355534 c -0.0609,0.0064 -0.13171,0.03899 -0.15451,0.06408 -0.0283,0.03161 -0.047,0.09202 -0.047,0.119372 0,0.0069 0.0198,0.03783 0.0238,0.05478 0.007,-0.0061 0.0139,-0.01199 0.0212,-0.01757 h 0.20516 c 0.0585,0.0022 0.11556,0.01911 0.16588,0.04909 l 0.01,-0.0041 0.0227,-0.04134 z"
       transform="scale(-1,1)"
       sodipodi:nodetypes="ccccscccccccccccsccccccccccccccccsccscccccscccscccccccccscccccccccccccssccccscccccsccccccssscccsscccccccccccccssccscscccccccccccccccccccccccscccccccsccccccccccssscccccccccccccccccccccsccscccscccsccscccccccsscccccccccscccccssccsccccccccsscsccscccccccccsccccccccccccccccccsccccccccccsccscsscccccccccsccccsscscccccccscccccccsccsccccsccssccccccccsccccccccscssccccccccccccscscccccccccsccccssccccccccccscccscccccccccccsccssscccsscsccccscccccccccsccccsccscccccccc" />
    <path
       style="fill:none;stroke:#000000;stroke-width:0.256546px;stroke-linecap:butt;stroke-linejoin:miter;stroke-opacity:1"
       d="M 125,0 H 0 V 88 H 125 V 0"
       id="path14350" />
    <text
       xml:space="preserve"
       style="font-size:10.5833px;line-height:1.25;font-family:Arial;-inkscape-font-specification:Arial;stroke-width:0.264583"
       x="95"
       y="50"
       id="text966"><tspan
         sodipodi:role="line"
         id="tspan964"
         style="stroke-width:0.264583" /></text>
  </g>
</svg>
