<?xml version="1.0" encoding="UTF-8" standalone="no"?>
<!-- Created with Inkscape (http://www.inkscape.org/) -->

<svg
   width="125mm"
   height="88mm"
   viewBox="0 0 125 88"
   version="1.1"
   id="svg5"
   inkscape:version="1.2.2 (732a01da63, 2022-12-09)"
   sodipodi:docname="schneeprofilkarte-text-flattened-footer.svg"
   xmlns:inkscape="http://www.inkscape.org/namespaces/inkscape"
   xmlns:sodipodi="http://sodipodi.sourceforge.net/DTD/sodipodi-0.dtd"
   xmlns="http://www.w3.org/2000/svg"
   xmlns:svg="http://www.w3.org/2000/svg">
  <sodipodi:namedview
     id="namedview7"
     pagecolor="#505050"
     bordercolor="#eeeeee"
     borderopacity="1"
     inkscape:showpageshadow="0"
     inkscape:pageopacity="0"
     inkscape:pagecheckerboard="0"
     inkscape:deskcolor="#505050"
     inkscape:document-units="mm"
     showgrid="true"
     inkscape:zoom="1.7288116"
     inkscape:cx="265.78952"
     inkscape:cy="182.78452"
     inkscape:current-layer="layer1">
    <inkscape:grid
       type="xygrid"
       id="grid132"
       units="mm"
       spacingx="1"
       spacingy="1"
       originx="0"
       originy="0"
       visible="true" />
  </sodipodi:namedview>
  <defs
     id="defs2">
    <rect
       x="170.07874"
       y="453.5433"
       width="321.25983"
       height="217.32283"
       id="rect9783" />
    <rect
       x="-56.692913"
       y="0"
       width="302.36221"
       height="359.05511"
       id="rect45032" />
  </defs>
  <g
     inkscape:label="Layer 1"
     inkscape:groupmode="layer"
     id="layer1">
    <path
       id="path15789"
       d="m 72.268803,86.024414 q 0.224609,0 0.352783,-0.133057 0.128174,-0.133056 0.128174,-0.368652 0,-0.229492 -0.09033,-0.439453 -0.09155,-0.211182 -0.241699,-0.328369 -0.150147,-0.117188 -0.330811,-0.117188 -0.186768,0 -0.280762,0.08179 -0.09399,0.08057 -0.09399,0.22583 0,0.219727 0.202637,0.345459 0.202637,0.124512 0.579834,0.124512 h 0.04028 l 0.0049,0.09766 q 0,0.159913 -0.07446,0.250245 -0.07568,0.08911 -0.233154,0.08911 -0.0769,0 -0.157471,-0.02197 -0.08179,-0.02197 -0.202637,-0.08057 v 0.178223 q 0.114746,0.05371 0.202637,0.07446 0.08789,0.02197 0.194092,0.02197 z m -0.169678,-1.212158 q 0.125733,0 0.236817,0.114746 0.109863,0.114746 0.168457,0.318603 h -0.01465 q -0.27832,0 -0.426025,-0.07202 -0.148926,-0.07324 -0.148926,-0.211182 0,-0.0647 0.04517,-0.107422 0.04395,-0.04272 0.13916,-0.04272 z m 1.098633,1.044922 q -0.06714,0 -0.175781,-0.03174 v 0.157471 q 0.0415,0.01709 0.102539,0.0293 0.06103,0.01221 0.09766,0.01221 0.152588,0 0.234375,-0.07202 0.08057,-0.07324 0.08057,-0.217286 0,-0.08057 -0.02197,-0.183105 l -0.15503,-0.734863 h 0.209961 l -0.01709,-0.08911 -0.225831,-0.09521 -0.152587,-0.27832 h -0.119629 l 0.06714,0.307617 h -0.334472 l 0.03174,0.15503 h 0.333252 l 0.157471,0.737304 q 0.02197,0.106202 0.02197,0.161133 0,0.06836 -0.0354,0.104981 -0.0354,0.03662 -0.09888,0.03662 z m 0.554199,-1.219483 q -0.08423,0 -0.146484,0.01709 l 0.04395,0.183106 q 0.0647,-0.01587 0.128174,-0.01587 0.111084,0 0.20874,0.07324 0.09644,0.07324 0.169678,0.203857 0.07202,0.129395 0.106201,0.288086 L 74.392826,86 h 0.205078 L 74.31226,84.662109 h -0.169678 l 0.02686,0.247803 h -0.01221 q -0.08789,-0.115967 -0.145264,-0.166016 -0.05737,-0.05127 -0.119629,-0.07813 -0.06348,-0.02808 -0.140381,-0.02808 z m 1.550293,0 q -0.112305,0 -0.200195,0.06104 -0.08789,0.05982 -0.136719,0.17334 h -0.01343 l -0.08179,-0.209961 H 74.715087 L 74.999516,86 h 0.162353 l -0.03174,-0.255127 h 0.0098 q 0.218505,0.279541 0.460205,0.279541 0.169677,0 0.266113,-0.12085 0.09643,-0.120849 0.09643,-0.33081 0,-0.253906 -0.08667,-0.471192 -0.08667,-0.217285 -0.239258,-0.340576 -0.152588,-0.123291 -0.334473,-0.123291 z m 0.231934,1.217041 q -0.118409,0 -0.235596,-0.112304 -0.117188,-0.113526 -0.19043,-0.29419 -0.07324,-0.181885 -0.07324,-0.363769 0,-0.125733 0.06836,-0.200196 0.06836,-0.07446 0.179444,-0.07446 0.126953,0 0.236816,0.104981 0.108643,0.10498 0.170899,0.284424 0.06226,0.179443 0.06226,0.378418 0,0.13916 -0.05737,0.20874 -0.05737,0.06836 -0.161133,0.06836 z M 76.89893,85.317627 76.25684,84.662109 H 76.011479 L 76.583988,85.232178 76.223881,86 h 0.228271 l 0.286866,-0.639648 0.185547,0.150146 L 77.024662,86 h 0.20752 L 76.82935,84.100586 h -0.20752 q 0.08789,0.410156 0.157471,0.734863 0.06958,0.324707 0.124512,0.482178 z M 77.661869,86 h 0.205078 l -0.405273,-1.899414 h -0.205078 z m 1.823731,0.600586 q 0.08423,0 0.152588,-0.02564 v -0.172119 q -0.07813,0.02685 -0.136719,0.02685 -0.09277,0 -0.142822,-0.07568 -0.05005,-0.07568 -0.08057,-0.216065 l -0.277099,-1.3208 h 0.235595 l -0.01587,-0.08179 -0.251465,-0.08057 -0.02808,-0.12207 q -0.05615,-0.244141 -0.155029,-0.344238 -0.100098,-0.101319 -0.29541,-0.101319 -0.04883,0 -0.119629,0.01465 -0.0708,0.01343 -0.109864,0.03052 l 0.05249,0.157471 q 0.09277,-0.0354 0.167236,-0.0354 0.106201,0 0.163574,0.05981 0.05615,0.05859 0.09155,0.216064 l 0.03052,0.131836 h -0.290528 l 0.03052,0.15503 h 0.289306 l 0.283204,1.340332 q 0.04761,0.230713 0.146484,0.336914 0.09888,0.106201 0.26001,0.106201 z M 78.296635,86 h 0.205078 L 78.216068,84.662109 H 78.01099 Z m -0.13794,-1.679688 q 0,-0.06836 -0.03906,-0.111083 -0.03906,-0.04395 -0.101318,-0.04395 -0.107422,0 -0.107422,0.109863 0,0.06714 0.0415,0.113526 0.04028,0.04639 0.09399,0.04639 0.04883,0 0.08057,-0.0293 0.03174,-0.03052 0.03174,-0.08545 z m 1.817627,0.324708 q -0.231933,0 -0.366211,0.137939 -0.134277,0.136719 -0.134277,0.377197 0,0.229492 0.08789,0.43335 0.08789,0.203857 0.238037,0.314941 0.150146,0.111084 0.339355,0.111084 0.234375,0 0.367432,-0.137939 0.133057,-0.13794 0.133057,-0.377197 0,-0.231934 -0.08911,-0.435791 -0.08911,-0.205079 -0.240478,-0.313721 Q 80.16065,84.64502 79.976323,84.64502 Z m -0.288086,0.48706 q 0,-0.140381 0.07691,-0.227051 0.07568,-0.08789 0.206299,-0.08789 0.133056,0 0.239257,0.09033 0.104981,0.09033 0.163575,0.251465 0.05737,0.159912 0.05737,0.356445 0,0.159912 -0.0769,0.247803 -0.07813,0.08667 -0.223388,0.08667 -0.126953,0 -0.228272,-0.08911 -0.101318,-0.08911 -0.157471,-0.252685 -0.05737,-0.164795 -0.05737,-0.375977 z m 1.094971,-0.494385 q -0.08423,0 -0.146484,0.01709 l 0.04395,0.183106 q 0.0647,-0.01587 0.128174,-0.01587 0.111084,0 0.20874,0.07324 0.09644,0.07324 0.169678,0.203857 0.07202,0.129395 0.106201,0.288086 L 81.424076,86 h 0.205078 L 81.34351,84.662109 h -0.169678 l 0.02686,0.247803 h -0.01221 q -0.08789,-0.115967 -0.145264,-0.166016 -0.05737,-0.05127 -0.119629,-0.07813 -0.06348,-0.02808 -0.140381,-0.02808 z m 1.695557,1.386719 q 0.118408,0 0.207519,-0.06103 0.08911,-0.06104 0.13794,-0.170899 h 0.01221 l 0.0049,0.04639 q 0.0037,0.03052 0.01343,0.08545 0.0085,0.05493 0.13916,0.67627 h 0.202637 l -0.410156,-1.938477 h -0.169678 l 0.03174,0.255127 h -0.0098 q -0.218506,-0.277099 -0.454102,-0.277099 -0.167236,0 -0.263672,0.119629 -0.09643,0.118408 -0.09643,0.333252 0,0.258789 0.08423,0.474853 0.08423,0.216065 0.233155,0.336914 0.148925,0.119629 0.336914,0.119629 z m -0.227051,-1.2146 q 0.117187,0 0.239258,0.115967 0.120849,0.115967 0.192871,0.291748 0.0708,0.175782 0.0708,0.360108 0,0.134277 -0.06714,0.206299 -0.06836,0.0708 -0.196533,0.0708 -0.12085,0 -0.22461,-0.09888 -0.10498,-0.09888 -0.168457,-0.280761 -0.06348,-0.183106 -0.06348,-0.388184 0,-0.2771 0.217285,-0.2771 z m 1.524658,1.2146 q 0.22461,0 0.352783,-0.133057 0.128174,-0.133056 0.128174,-0.368652 0,-0.229492 -0.09033,-0.439453 -0.09155,-0.211182 -0.241699,-0.328369 -0.150147,-0.117188 -0.330811,-0.117188 -0.186767,0 -0.280761,0.08179 -0.09399,0.08057 -0.09399,0.22583 0,0.219727 0.202636,0.345459 0.202637,0.124512 0.579834,0.124512 h 0.04028 l 0.0049,0.09766 q 0,0.159913 -0.07446,0.250245 -0.07568,0.08911 -0.233154,0.08911 -0.0769,0 -0.157471,-0.02197 -0.08179,-0.02197 -0.202636,-0.08057 v 0.178223 q 0.114746,0.05371 0.202636,0.07446 0.08789,0.02197 0.194092,0.02197 z m -0.169678,-1.212158 q 0.125733,0 0.236817,0.114746 0.109863,0.114746 0.168457,0.318603 h -0.01465 q -0.27832,0 -0.426025,-0.07202 -0.148926,-0.07324 -0.148926,-0.211182 0,-0.0647 0.04517,-0.107422 0.04395,-0.04272 0.13916,-0.04272 z m 1.402588,1.212158 q 0.22461,0 0.352784,-0.133057 0.128173,-0.133056 0.128173,-0.368652 0,-0.229492 -0.09033,-0.439453 -0.09155,-0.211182 -0.241699,-0.328369 -0.150146,-0.117188 -0.33081,-0.117188 -0.186768,0 -0.280762,0.08179 -0.09399,0.08057 -0.09399,0.22583 0,0.219727 0.202636,0.345459 0.202637,0.124512 0.579834,0.124512 h 0.04028 l 0.0049,0.09766 q 0,0.159913 -0.07446,0.250245 -0.07568,0.08911 -0.233155,0.08911 -0.0769,0 -0.15747,-0.02197 -0.08179,-0.02197 -0.202637,-0.08057 v 0.178223 q 0.114746,0.05371 0.202637,0.07446 0.08789,0.02197 0.194091,0.02197 z m -0.169677,-1.212158 q 0.125732,0 0.236816,0.114746 0.109863,0.114746 0.168457,0.318603 h -0.01465 q -0.278321,0 -0.426026,-0.07202 -0.148926,-0.07324 -0.148926,-0.211182 0,-0.0647 0.04517,-0.107422 0.04395,-0.04272 0.139161,-0.04272 z M 86.162846,86 85.982182,85.155273 q -0.02441,-0.126953 -0.02441,-0.175781 0,-0.0769 0.04395,-0.123291 0.04273,-0.04639 0.137939,-0.04639 0.108643,0 0.212403,0.07324 0.102539,0.07324 0.181885,0.20874 0.07813,0.135498 0.118408,0.328369 L 86.775639,86 h 0.205078 l -0.285645,-1.337891 h -0.169677 l 0.02685,0.247803 h -0.01221 q -0.117187,-0.148926 -0.22583,-0.209961 -0.109863,-0.06226 -0.227051,-0.06226 -0.155029,0 -0.24414,0.08545 -0.09033,0.08423 -0.09033,0.236816 0,0.09643 0.02808,0.219726 L 85.955326,86 Z m 1.442871,0 -0.180664,-0.844727 q -0.02197,-0.114746 -0.02197,-0.164794 0,-0.180665 0.179444,-0.180665 0.108642,0 0.212402,0.07202 0.102539,0.07202 0.181885,0.209961 0.07813,0.136719 0.118408,0.33081 L 88.21851,86 h 0.205078 l -0.402832,-1.899414 h -0.205078 q 0.02197,0.100098 0.04272,0.194092 0.01953,0.09399 0.0415,0.19165 0.02075,0.09644 0.04639,0.202637 0.02441,0.106201 0.05737,0.230713 h -0.01343 q -0.114746,-0.150147 -0.22583,-0.214844 -0.112304,-0.0647 -0.234375,-0.0647 -0.159912,0 -0.246582,0.08789 -0.08789,0.08789 -0.08789,0.249024 0,0.07568 0.02808,0.202636 0.04761,0.235599 0.177008,0.820316 z m 1.397705,0.02441 q 0.236816,0 0.367432,-0.130615 0.130615,-0.130615 0.130615,-0.368653 0,-0.24414 -0.09033,-0.450439 -0.09033,-0.206299 -0.249024,-0.321045 -0.159912,-0.115967 -0.358886,-0.115967 -0.167237,0 -0.327149,0.06226 l 0.05737,0.172119 q 0.146485,-0.06226 0.267334,-0.06226 0.136719,0 0.250244,0.09399 0.112305,0.09277 0.177002,0.260009 0.06348,0.166016 0.06348,0.361328 0,0.15625 -0.08057,0.24292 -0.08179,0.08667 -0.22461,0.08667 -0.08789,0 -0.166015,-0.02441 -0.07813,-0.02441 -0.153809,-0.05737 v 0.174561 q 0.151367,0.0769 0.336914,0.0769 z m 0.791016,-0.404053 q 0,0.19043 0.135498,0.297852 0.134277,0.106201 0.379638,0.106201 0.206299,0 0.372315,-0.08423 v -0.192872 q -0.08545,0.05127 -0.184326,0.07935 -0.09888,0.02808 -0.183106,0.02808 -0.153808,0 -0.231933,-0.06104 -0.07813,-0.06104 -0.07813,-0.15625 0,-0.06958 0.04272,-0.117187 0.04272,-0.04761 0.184326,-0.130616 0.158692,-0.08911 0.22461,-0.17456 0.06592,-0.08545 0.06592,-0.202637 0,-0.168457 -0.123291,-0.270996 -0.123291,-0.10376 -0.324707,-0.10376 -0.208741,0 -0.402832,0.09033 l 0.06592,0.167237 0.06836,-0.03052 q 0.123291,-0.05249 0.268555,-0.05249 0.113525,0 0.178222,0.05371 0.0647,0.05249 0.0647,0.136719 0,0.06836 -0.04273,0.117187 -0.04395,0.04883 -0.179443,0.125732 -0.130616,0.07324 -0.186768,0.125733 -0.05737,0.05249 -0.08545,0.113525 -0.02808,0.05982 -0.02808,0.135498 z M 90.476811,84.215332 91.469242,86 h 0.212403 l -0.992432,-1.784668 z m 1.485595,1.217041 h 0.605469 L 92.866947,86 H 93.09766 L 92.122318,84.215332 H 91.909916 L 91.685307,86 h 0.207519 z m 0.02197,-0.19043 0.04272,-0.36499 q 0.0293,-0.218506 0.0354,-0.427246 0.04517,0.107422 0.09888,0.213623 0.05249,0.106201 0.303955,0.578613 z m 1.92261,0.01587 L 94.064457,86 h 0.20752 l -0.377198,-1.784668 h -0.390625 q -0.544433,0 -0.544433,0.446777 0,0.424805 0.449219,0.548096 L 93.117192,86 h 0.22705 l 0.255127,-0.742188 z m -0.179443,-0.860595 q 0.124512,0.603027 0.141602,0.682373 h -0.205078 q -0.235596,0 -0.362549,-0.10376 -0.126953,-0.10376 -0.126953,-0.297851 0,-0.147706 0.08301,-0.213624 0.08179,-0.06714 0.267334,-0.06714 z m 0.977783,1.459961 q -0.06714,0 -0.175781,-0.03174 v 0.157471 q 0.0415,0.01709 0.102539,0.0293 0.06104,0.01221 0.09766,0.01221 0.152588,0 0.234375,-0.07202 0.08057,-0.07324 0.08057,-0.217286 0,-0.08057 -0.02197,-0.183105 L 94.86769,84.817146 h 0.209961 l -0.01709,-0.08911 -0.22583,-0.09521 -0.152588,-0.27832 h -0.119639 l 0.06714,0.307617 h -0.334473 l 0.03174,0.15503 h 0.333252 l 0.157471,0.737304 q 0.02197,0.106202 0.02197,0.161133 0,0.06836 -0.0354,0.104981 -0.0354,0.03662 -0.09888,0.03662 z m 0.554199,-1.219483 q -0.08423,0 -0.146484,0.01709 l 0.04395,0.183106 q 0.0647,-0.01587 0.128174,-0.01587 0.111084,0 0.20874,0.07324 0.09644,0.07324 0.169678,0.203857 0.07202,0.129395 0.106201,0.288086 L 95.900395,86 h 0.205078 L 95.819828,84.662109 H 95.65015 l 0.02686,0.247803 H 95.6648 q -0.08789,-0.115967 -0.145264,-0.166016 -0.05737,-0.05127 -0.119629,-0.07813 -0.06348,-0.02808 -0.140381,-0.02808 z m 1.550293,1.386719 q 0.22461,0 0.352784,-0.133057 0.128173,-0.133056 0.128173,-0.368652 0,-0.229492 -0.09033,-0.439453 -0.09155,-0.211182 -0.241699,-0.328369 -0.150146,-0.117188 -0.33081,-0.117188 -0.186768,0 -0.280762,0.08179 -0.09399,0.08057 -0.09399,0.22583 0,0.219727 0.202637,0.345459 0.202636,0.124512 0.579834,0.124512 h 0.04028 l 0.0049,0.09766 q 0,0.159913 -0.07446,0.250245 -0.07568,0.08911 -0.233155,0.08911 -0.0769,0 -0.15747,-0.02197 -0.08179,-0.02197 -0.202637,-0.08057 v 0.178223 q 0.114746,0.05371 0.202637,0.07446 0.08789,0.02197 0.194091,0.02197 z m -0.169677,-1.212158 q 0.125732,0 0.236816,0.114746 0.109863,0.114746 0.168457,0.318603 h -0.01465 q -0.278321,0 -0.426026,-0.07202 -0.148925,-0.07324 -0.148925,-0.211182 0,-0.0647 0.04517,-0.107422 0.04395,-0.04272 0.13916,-0.04272 z m 1.536865,0.505371 -0.64209,-0.655518 h -0.245361 l 0.57251,0.570068 L 97.501957,86 h 0.228272 l 0.286865,-0.639648 0.185547,0.150146 L 98.302738,86 h 0.20752 l -0.402832,-1.899414 h -0.20752 q 0.08789,0.410156 0.157471,0.734863 0.06958,0.324707 0.124512,0.482178 z M 98.939945,86 h 0.205079 L 98.73975,84.100586 h -0.205078 z m 0.892334,-1.35498 q -0.231933,0 -0.366211,0.137939 -0.134277,0.136719 -0.134277,0.377197 0,0.229492 0.08789,0.43335 0.08789,0.203857 0.238037,0.314941 0.150146,0.111084 0.339355,0.111084 0.234377,0 0.367427,-0.137939 0.13306,-0.13794 0.13306,-0.377197 0,-0.231934 -0.0891,-0.435791 -0.0891,-0.205079 -0.24048,-0.313721 -0.15136,-0.109863 -0.33569,-0.109863 z m -0.288086,0.48706 q 0,-0.140381 0.07691,-0.227051 0.07568,-0.08789 0.206299,-0.08789 0.133056,0 0.239258,0.09033 0.10498,0.09033 0.16357,0.251465 0.0574,0.159912 0.0574,0.356445 0,0.159912 -0.0769,0.247803 -0.0781,0.08667 -0.223384,0.08667 -0.126953,0 -0.228272,-0.08911 -0.101318,-0.08911 -0.15747,-0.252685 -0.05737,-0.164795 -0.05737,-0.375977 z M 101.48267,86 h 0.20996 l -0.3772,-1.784668 h -0.89721 l 0.0366,0.186768 h 0.69336 l 0.13427,0.650634 h -0.64453 l 0.0391,0.186768 h 0.64575 z m 0.1001,-1.784668 L 102.5752,86 h 0.2124 l -0.99243,-1.784668 z M 104.00342,86 103.82276,85.155273 q -0.022,-0.114746 -0.022,-0.164794 0,-0.08545 0.0378,-0.133057 0.0378,-0.04761 0.12939,-0.04761 0.10254,0 0.2002,0.07324 0.0964,0.07324 0.1709,0.209961 0.0732,0.135498 0.11352,0.327148 L 104.57593,86 h 0.20508 l -0.28565,-1.337891 h -0.16967 l 0.0269,0.247803 h -0.0122 q -0.1062,-0.145264 -0.21118,-0.20874 -0.10621,-0.06348 -0.21851,-0.06348 -0.13794,0 -0.2124,0.07935 -0.0745,0.07935 -0.0879,0.220947 h -0.01 q -0.10498,-0.152588 -0.22339,-0.22583 -0.11841,-0.07446 -0.23926,-0.07446 -0.15503,0 -0.23926,0.08301 -0.0855,0.08301 -0.0855,0.241699 0,0.08301 0.0269,0.217285 L 103.01587,86 h 0.20752 l -0.18066,-0.844727 q -0.0244,-0.126953 -0.0244,-0.178222 0,-0.07568 0.0427,-0.12085 0.0415,-0.04639 0.13183,-0.04639 0.0989,0 0.19532,0.0708 0.0964,0.0708 0.16967,0.201416 0.072,0.129395 0.10987,0.307617 L 103.79834,86 Z m 1.46729,-1.35498 q -0.23194,0 -0.36621,0.137939 -0.13428,0.136719 -0.13428,0.377197 0,0.229492 0.0879,0.43335 0.0879,0.203857 0.23804,0.314941 0.15014,0.111084 0.33935,0.111084 0.23438,0 0.36743,-0.137939 0.13306,-0.13794 0.13306,-0.377197 0,-0.231934 -0.0891,-0.435791 -0.0891,-0.205079 -0.24048,-0.313721 -0.15137,-0.109863 -0.33569,-0.109863 z m -0.28809,0.48706 q 0,-0.140381 0.0769,-0.227051 0.0757,-0.08789 0.2063,-0.08789 0.13306,0 0.23926,0.09033 0.10498,0.09033 0.16357,0.251465 0.0574,0.159912 0.0574,0.356445 0,0.159912 -0.0769,0.247803 -0.0781,0.08667 -0.22339,0.08667 -0.12695,0 -0.22827,-0.08911 -0.10132,-0.08911 -0.15747,-0.252685 -0.0574,-0.164795 -0.0574,-0.375977 z m 1.58081,0.892334 q 0.23682,0 0.36743,-0.130615 0.13062,-0.130615 0.13062,-0.368653 0,-0.24414 -0.0903,-0.450439 -0.0903,-0.206299 -0.24903,-0.321045 -0.15991,-0.115967 -0.35888,-0.115967 -0.16724,0 -0.32715,0.06226 l 0.0574,0.172119 q 0.14648,-0.06226 0.26733,-0.06226 0.13672,0 0.25025,0.09399 0.1123,0.09277 0.177,0.260009 0.0635,0.166016 0.0635,0.361328 0,0.15625 -0.0806,0.24292 -0.0818,0.08667 -0.22461,0.08667 -0.0879,0 -0.16602,-0.02441 -0.0781,-0.02441 -0.1538,-0.05737 v 0.174561 q 0.15136,0.0769 0.33691,0.0769 z m 1.19751,-0.114746 q 0,-0.09399 -0.0488,-0.148926 -0.05,-0.05615 -0.13672,-0.05615 -0.0525,0 -0.0842,0.03174 -0.033,0.03174 -0.033,0.09644 0,0.08667 0.0488,0.145263 0.0488,0.05737 0.13184,0.05737 0.0562,0 0.0891,-0.03174 0.033,-0.03174 0.033,-0.09399 z m 0.83008,0.114746 q 0.11841,0 0.20874,-0.06226 0.0891,-0.06226 0.13428,-0.169678 h 0.0122 L 109.23169,86 h 0.15259 l -0.40283,-1.899414 h -0.20508 q 0.0623,0.29541 0.0964,0.452881 0.033,0.15625 0.0915,0.366211 h -0.011 q -0.11352,-0.144043 -0.22339,-0.211182 -0.11108,-0.06836 -0.22827,-0.06836 -0.17212,0 -0.26855,0.120849 -0.0964,0.12085 -0.0964,0.332032 0,0.255127 0.0842,0.472412 0.083,0.216064 0.23315,0.338134 0.14893,0.12085 0.33691,0.12085 z m -0.22705,-1.2146 q 0.11719,0 0.23926,0.115967 0.12085,0.115967 0.19287,0.291748 0.0708,0.175782 0.0708,0.360108 0,0.134277 -0.0671,0.206299 -0.0684,0.0708 -0.19654,0.0708 -0.12085,0 -0.22461,-0.09888 -0.10498,-0.09888 -0.16845,-0.280761 -0.0635,-0.183106 -0.0635,-0.388184 0,-0.2771 0.21728,-0.2771 z m 1.78467,-0.147705 0.1831,0.848389 q 0.022,0.108643 0.022,0.169678 0,0.17456 -0.17944,0.17456 -0.10742,0 -0.21118,-0.07324 -0.10376,-0.07324 -0.18311,-0.209961 -0.0793,-0.136719 -0.12085,-0.32959 l -0.12207,-0.579834 h -0.20264 L 109.81641,86 h 0.16968 l -0.0269,-0.247803 h 0.0147 q 0.11963,0.152588 0.22827,0.212403 0.10864,0.05981 0.22461,0.05981 0.15625,0 0.24536,-0.08423 0.0891,-0.08545 0.0891,-0.24292 0,-0.07568 -0.0268,-0.209961 l -0.17822,-0.825196 z M 111.45215,86 111.27149,85.155273 q -0.022,-0.114746 -0.022,-0.164794 0,-0.180665 0.17944,-0.180665 0.10864,0 0.2124,0.07202 0.10254,0.07202 0.18189,0.209961 0.0781,0.136719 0.11841,0.33081 L 112.06494,86 h 0.20508 l -0.40283,-1.899414 h -0.20508 q 0.022,0.100098 0.0427,0.194092 0.0195,0.09399 0.0415,0.19165 0.0207,0.09644 0.0464,0.202637 0.0244,0.106201 0.0574,0.230713 h -0.0134 q -0.11474,-0.150147 -0.22583,-0.214844 -0.1123,-0.0647 -0.23437,-0.0647 -0.15991,0 -0.24658,0.08789 -0.0879,0.08789 -0.0879,0.249024 0,0.07568 0.0281,0.202636 0.0476,0.235599 0.17699,0.820316 z m 1.21826,-0.142822 q -0.0671,0 -0.17578,-0.03174 v 0.157471 q 0.0415,0.01709 0.10254,0.0293 0.061,0.01221 0.0977,0.01221 0.15259,0 0.23438,-0.07202 0.0806,-0.07324 0.0806,-0.217286 0,-0.08057 -0.022,-0.183105 l -0.15503,-0.734863 h 0.20996 l -0.0171,-0.08911 -0.22583,-0.09521 -0.15259,-0.27832 h -0.11963 l 0.0671,0.307617 h -0.33447 l 0.0317,0.15503 h 0.33325 l 0.15747,0.737304 q 0.022,0.106202 0.022,0.161133 0,0.06836 -0.0354,0.104981 -0.0354,0.03662 -0.0989,0.03662 z M 113.51026,86 h 0.20508 l -0.28565,-1.337891 h -0.20508 z m -0.13794,-1.679688 q 0,-0.06836 -0.0391,-0.111083 -0.0391,-0.04395 -0.10132,-0.04395 -0.10742,0 -0.10742,0.109863 0,0.06714 0.0415,0.113526 0.0403,0.04639 0.094,0.04639 0.0488,0 0.0806,-0.0293 0.0317,-0.03052 0.0317,-0.08545 z m 0.3247,0.341797 0.0305,0.130616 0.25757,0.0293 q -0.0501,0.07568 -0.0501,0.192872 0,0.233154 0.14282,0.372314 0.14161,0.137939 0.37964,0.137939 0.0671,0 0.10254,-0.0098 0.16968,0.0647 0.16968,0.159912 0,0.05005 -0.0403,0.06714 -0.0403,0.01587 -0.11719,0.02563 l -0.14282,0.01709 q -0.22095,0.02686 -0.31982,0.107422 -0.1001,0.08057 -0.1001,0.236817 0,0.224609 0.17822,0.3479 0.17822,0.123291 0.50171,0.123291 0.23682,0 0.37109,-0.09033 0.13428,-0.08911 0.13428,-0.252686 0,-0.128173 -0.0879,-0.222168 -0.0879,-0.09399 -0.28442,-0.159912 0.0952,-0.05005 0.0952,-0.147705 0,-0.08423 -0.0623,-0.144043 -0.0623,-0.06104 -0.17334,-0.113525 0.0769,-0.03906 0.12573,-0.114746 0.0488,-0.0769 0.0488,-0.178223 0,-0.236816 -0.14526,-0.388184 -0.14649,-0.151367 -0.37354,-0.151367 -0.0952,0 -0.18799,0.02441 z m 1.30005,1.575928 q 0,0.09399 -0.0793,0.148926 -0.0794,0.05493 -0.23559,0.05493 -0.22217,0 -0.34668,-0.07813 -0.12573,-0.0769 -0.12573,-0.218506 0,-0.07568 0.0659,-0.119629 0.0659,-0.04395 0.2246,-0.06103 l 0.1941,-0.01953 q 0.14648,0.03052 0.22461,0.107422 0.0781,0.0769 0.0781,0.185547 z m -0.33935,-1.068115 q 0,0.10376 -0.0549,0.158691 -0.0549,0.05371 -0.15259,0.05371 -0.0964,0 -0.16846,-0.05127 -0.072,-0.05127 -0.10986,-0.140381 -0.0391,-0.09033 -0.0391,-0.195313 0,-0.100097 0.0537,-0.152588 0.0537,-0.05249 0.15381,-0.05249 0.0952,0 0.16724,0.05005 0.0708,0.04883 0.11108,0.137939 0.0391,0.08789 0.0391,0.191651 z m 0.16723,-0.95459 L 115.81739,86 h 0.2124 l -0.99243,-1.784668 z m 0.87525,0 L 116.69263,86 h 0.2124 l -0.99243,-1.784668 z m 1.66992,1.694336 q 0,-0.09399 -0.0488,-0.148926 -0.05,-0.05615 -0.13672,-0.05615 -0.0525,0 -0.0842,0.03174 -0.033,0.03174 -0.033,0.09644 0,0.08667 0.0488,0.145263 0.0488,0.05737 0.13184,0.05737 0.0561,0 0.0891,-0.03174 0.033,-0.03174 0.033,-0.09399 z m -0.19531,-1.07666 q 0,-0.09399 -0.0488,-0.148926 -0.0488,-0.05615 -0.1355,-0.05615 -0.11841,0 -0.11841,0.126953 0,0.08911 0.0513,0.146484 0.05,0.05615 0.1294,0.05615 0.0562,0 0.0891,-0.03174 0.033,-0.03296 0.033,-0.09277 z m 0.42114,0.787353 q 0,0.19043 0.1355,0.297852 0.13428,0.106201 0.37964,0.106201 0.2063,0 0.37231,-0.08423 v -0.192872 q -0.0855,0.05127 -0.18432,0.07935 -0.0989,0.02808 -0.18311,0.02808 -0.15381,0 -0.23193,-0.06104 -0.0781,-0.06104 -0.0781,-0.15625 0,-0.06958 0.0427,-0.117187 0.0427,-0.04761 0.18432,-0.130616 0.15869,-0.08911 0.22461,-0.17456 0.0659,-0.08545 0.0659,-0.202637 0,-0.168457 -0.12329,-0.270996 -0.12329,-0.10376 -0.32471,-0.10376 -0.20874,0 -0.40283,0.09033 l 0.0659,0.167237 0.0684,-0.03052 q 0.12329,-0.05249 0.26855,-0.05249 0.11353,0 0.17822,0.05371 0.0647,0.05249 0.0647,0.136719 0,0.06836 -0.0427,0.117187 -0.0439,0.04883 -0.17945,0.125732 -0.13061,0.07324 -0.18676,0.125733 -0.0574,0.05249 -0.0854,0.113525 -0.0281,0.05982 -0.0281,0.135498 z m 1.67481,0.404053 q 0.1184,0 0.20752,-0.06103 0.0891,-0.06104 0.13793,-0.170899 h 0.0122 l 0.005,0.04639 q 0.004,0.03052 0.0134,0.08545 0.009,0.05493 0.13916,0.67627 h 0.20264 l -0.41016,-1.938477 h -0.16967 l 0.0317,0.255127 h -0.01 q -0.2185,-0.277099 -0.4541,-0.277099 -0.16723,0 -0.26367,0.119629 -0.0964,0.118408 -0.0964,0.333252 0,0.258789 0.0842,0.474853 0.0842,0.216065 0.23316,0.336914 0.14892,0.119629 0.33691,0.119629 z m -0.22706,-1.2146 q 0.11719,0 0.23926,0.115967 0.12085,0.115967 0.19287,0.291748 0.0708,0.175782 0.0708,0.360108 0,0.134277 -0.0671,0.206299 -0.0684,0.0708 -0.19654,0.0708 -0.12085,0 -0.22461,-0.09888 -0.10498,-0.09888 -0.16845,-0.280761 -0.0635,-0.183106 -0.0635,-0.388184 0,-0.2771 0.21728,-0.2771 z m 1.22071,1.047364 q -0.0671,0 -0.17578,-0.03174 v 0.157472 q 0.0415,0.01709 0.10254,0.0293 0.061,0.01221 0.0977,0.01221 0.15259,0 0.23438,-0.07202 0.0806,-0.07324 0.0806,-0.217286 0,-0.08057 -0.022,-0.183105 l -0.15503,-0.734863 h 0.20996 l -0.0171,-0.08911 -0.22583,-0.09521 -0.15259,-0.27832 h -0.11962 l 0.0671,0.307617 h -0.33447 l 0.0317,0.15503 h 0.33325 l 0.15747,0.737293 q 0.022,0.106202 0.022,0.161133 0,0.06836 -0.0354,0.104981 -0.0354,0.03662 -0.0989,0.03662 z m 0.81054,0 q -0.0671,0 -0.17578,-0.03174 v 0.157472 q 0.0415,0.01709 0.10254,0.0293 0.061,0.01221 0.0977,0.01221 0.15259,0 0.23437,-0.07202 0.0806,-0.07324 0.0806,-0.217286 0,-0.08057 -0.022,-0.183105 l -0.15503,-0.734867 h 0.20996 l -0.0171,-0.08911 -0.22583,-0.09521 -0.15259,-0.27832 h -0.11963 l 0.0671,0.307617 h -0.33447 l 0.0317,0.15503 h 0.33325 l 0.15747,0.737304 q 0.022,0.106202 0.022,0.161133 0,0.06836 -0.0354,0.104981 -0.0354,0.03662 -0.0989,0.03662 z M 122.11011,86 121.92945,85.155273 q -0.022,-0.114746 -0.022,-0.164794 0,-0.180665 0.17945,-0.180665 0.10864,0 0.2124,0.07202 0.10254,0.07202 0.18188,0.209961 0.0781,0.136719 0.11841,0.33081 L 122.7229,86 h 0.20508 l -0.40283,-1.899414 h -0.20508 q 0.022,0.100098 0.0427,0.194092 0.0195,0.09399 0.0415,0.19165 0.0207,0.09644 0.0464,0.202637 0.0244,0.106201 0.0574,0.230713 h -0.0134 q -0.11474,-0.150147 -0.22583,-0.214844 -0.1123,-0.0647 -0.23437,-0.0647 -0.15991,0 -0.24658,0.08789 -0.0879,0.08789 -0.0879,0.249024 0,0.07568 0.0281,0.202636 0.0476,0.235599 0.177,0.820316 z"
       style="font-size:2.5px;font-family:'Open Sans';-inkscape-font-specification:'Open Sans';stroke-width:0.264583" />
    <path
       style="color:#000000;fill:#000000;-inkscape-stroke:none"
       d="M 125,-0.12890625 V 0 h 0.12891 V 88.128906 H -0.12890625 V -0.12890625 Z m -0.1289,0.2578125 H 0.12891375 V 87.871094 H 124.8711 Z"
       id="path15786" />
  </g>
</svg>
